<?xml version="1.0" standalone="no"?>
<!DOCTYPE svg PUBLIC "-//W3C//DTD SVG 20010904//EN"
 "http://www.w3.org/TR/2001/REC-SVG-20010904/DTD/svg10.dtd">
<svg version="1.0" xmlns="http://www.w3.org/2000/svg"
 width="700.000000pt" height="700.000000pt" viewBox="0 0 700.000000 700.000000"
 preserveAspectRatio="xMidYMid meet">
<metadata>
Created by potrace 1.11, written by Peter Selinger 2001-2013
</metadata>
<g transform="translate(0.000000,700.000000) scale(0.100000,-0.100000)"
fill="#000000" stroke="none">
<path d="M0 3500 l0 -3500 3500 0 3500 0 0 3500 0 3500 -3500 0 -3500 0 0
-3500z m6470 0 l0 -2970 -2970 0 -2970 0 0 2970 0 2970 2970 0 2970 0 0 -2970z"/>
<path d="M2090 3465 l0 -1365 375 0 375 0 2 717 3 718 226 -500 226 -500 204
0 203 0 226 498 225 498 3 -716 2 -715 375 0 375 0 0 1365 0 1365 -409 0 -409
0 -293 -635 c-161 -349 -295 -635 -298 -635 -3 0 -136 286 -296 635 l-290 635
-412 0 -413 0 0 -1365z"/>
</g>
</svg>
