<?xml version="1.0" standalone="no"?>
<!DOCTYPE svg PUBLIC "-//W3C//DTD SVG 20010904//EN"
 "http://www.w3.org/TR/2001/REC-SVG-20010904/DTD/svg10.dtd">
<svg version="1.0" xmlns="http://www.w3.org/2000/svg"
 width="700.000000pt" height="700.000000pt" viewBox="0 0 700.000000 700.000000"
 preserveAspectRatio="xMidYMid meet">
<metadata>
Created by potrace 1.11, written by Peter Selinger 2001-2013
</metadata>
<g transform="translate(0.000000,700.000000) scale(0.100000,-0.100000)"
fill="#000000" stroke="none">
<path d="M0 3500 l0 -3500 3500 0 3500 0 0 3500 0 3500 -3500 0 -3500 0 0
-3500z m6650 1093 c0 -1178 -4 -2053 -9 -2047 -5 5 -448 711 -986 1569 -570
911 -993 1575 -1015 1597 -64 63 -154 64 -215 3 -19 -20 -37 -49 -40 -67 -3
-18 -43 -631 -89 -1361 -46 -731 -86 -1330 -89 -1333 -2 -3 -567 223 -1253
502 -1181 479 -1252 506 -1300 502 -79 -7 -127 -53 -140 -134 -4 -26 -1 -53 9
-75 8 -19 486 -786 1062 -1705 576 -918 1050 -1675 1052 -1682 4 -9 -328 -12
-1641 -12 l-1646 0 0 3150 0 3150 3150 0 3150 0 0 -2057z m-1026 -993 c531
-846 972 -1540 991 -1558 l35 -32 0 -830 0 -830 -1334 0 -1333 0 -7 30 c-3 17
-440 722 -970 1568 -531 845 -961 1538 -957 1540 4 1 508 -201 1121 -449 613
-248 1131 -454 1152 -456 49 -7 121 28 148 71 11 19 22 53 25 77 5 37 155
2367 155 2401 0 8 3 8 9 3 5 -6 440 -696 965 -1535z"/>
</g>
</svg>
